# xmcd
#
# Track frame offsets:
#	150
#	20887
#	51585
#	72640
#	112080
#	139877
#	160047
#	182422
#
# Disc length: 2946 seconds
#
# Revision: 1
# Processed by: cddbd v1.5.1PL0 Copyright (c) Steve Scherf et al.
# Submitted via: audiograbber 1.83.01
#
DISCID=790b8008
DTITLE=Sivan Perwer - Heviya Te
DYEAR=1900
DGENRE=
TTITLE0=Bila Be
TTITLE1=Duhok
TTITLE2=Hevi
TTITLE3=Lo Mamo
TTITLE4=Tembura Min
TTITLE5=Welleh Nabe
TTITLE6=Ser Neke
TTITLE7=Dayik
EXTD=
EXTT0=
EXTT1=
EXTT2=
EXTT3=
EXTT4=
EXTT5=
EXTT6=
EXTT7=
PLAYORDER=
